#N canvas 397 92 1228 876 10;
#X obj 91 -230 bng 15 250 50 0 empty empty empty 0 -6 0 8 -262144 -1
-1;
#X obj 95 -199 openpanel;
#X msg 54 -153 bang;
#X obj 144 -123 symbol;
#N canvas 0 22 454 304 (subpatch) 0;
#X array samplerom 249090 float 2;
#X coords 0 1 249090 -1 200 140 1;
#X restore 619 -259 graph;
#X obj 334 436 dac~;
#X msg 268 5 pitch \$1;
#X floatatom 277 -36 5 0 0 0 - - -;
#X floatatom 272 33 5 0 0 0 - - -;
#X msg 269 53 chunks \$1;
#X obj 263 146 hsl 128 15 0.01 1 1 0 empty empty empty -2 -6 0 8 -262144
-1 -1 5500 1;
#X obj 231 163 *~;
#X obj 77 -61 vsl 15 128 0.01 1 1 0 empty empty empty 0 -8 0 8 -262144
-1 -1 3300 1;
#X floatatom 107 68 10 0 0 0 - - -;
#X obj 113 -42 bng 15 250 50 0 empty empty empty 0 -6 0 8 -262144 -1
-1;
#X obj 114 100 *;
#X obj 108 5 arraysize samplerom;
#X obj 231 116 tabreadmix~ samplerom;
#X msg 255 -203 samplerom read /Users/dystopic/Audio Library/Apple
Loops/loops/MP2-NuRomance-A-01.aif;
#X obj 161 -66 soundfiler;
#X msg 138 -91 read -resize \$1 samplerom;
#X text 63 -271 Sample Grain Looping and Bandpass Analysis / Resynthesis
;
#X floatatom 432 40 5 0 0 0 - - -;
#X floatatom 564 119 5 0 0 0 - - -;
#X floatatom 571 180 5 0 50 0 - - -;
#X text 63 -259 v 0.2 => with envelope (env~) object...;
#N canvas 751 161 1020 781 sineResynthBeta 1;
#X obj 18 287 inlet~;
#X obj 220 30 inlet;
#X obj 340 32 inlet;
#X text 388 32 Q;
#X text 264 32 base freq;
#X obj 638 34 inlet;
#X text 683 31 time for signal follower;
#X text 71 284 signal;
#X obj 62 569 outlet~;
#X obj 215 156 * 1;
#X obj 247 157 * 1.5;
#X obj 289 156 * 2;
#N canvas 246 174 971 680 resynthElement0.2 0;
#X obj 28 7 inlet~;
#X obj 241 15 inlet;
#X text 88 9 signal;
#X text 288 14 frequency;
#X obj 41 458 outlet~;
#X text 125 458 output;
#X obj 244 72 bp~ 100 10;
#X obj 184 147 osc~;
#X obj 392 15 inlet;
#X text 437 14 Q;
#X obj 199 286 *~;
#X obj 363 458 print~;
#X obj 302 179 *;
#X msg 474 191 bang;
#X obj 298 255 line;
#X obj 492 23 inlet;
#X text 539 14 time for signal follower;
#X floatatom 300 322 5 0 0 0 - - -;
#X obj 382 119 loadbang;
#X obj 325 374 print;
#X msg 373 168 0.02;
#X floatatom 366 205 5 0 0 0 - - -;
#X obj 300 142 env~ 128;
#X obj 300 229 pack f 10;
#X connect 0 0 6 0;
#X connect 1 0 6 1;
#X connect 1 0 7 0;
#X connect 6 0 22 0;
#X connect 7 0 10 0;
#X connect 8 0 6 2;
#X connect 10 0 11 0;
#X connect 10 0 4 0;
#X connect 12 0 23 0;
#X connect 13 0 11 0;
#X connect 14 0 10 1;
#X connect 14 0 17 0;
#X connect 15 0 21 0;
#X connect 18 0 20 0;
#X connect 20 0 12 1;
#X connect 21 0 23 1;
#X connect 22 0 12 0;
#X connect 23 0 14 0;
#X restore 227 401 pd resynthElement0.2;
#N canvas 246 174 971 680 resynthElement0.2 0;
#X obj 28 7 inlet~;
#X obj 241 15 inlet;
#X text 88 9 signal;
#X text 288 14 frequency;
#X obj 41 458 outlet~;
#X text 125 458 output;
#X obj 244 72 bp~ 100 10;
#X obj 184 147 osc~;
#X obj 392 15 inlet;
#X text 437 14 Q;
#X obj 199 286 *~;
#X obj 363 458 print~;
#X obj 302 179 *;
#X msg 474 191 bang;
#X obj 298 255 line;
#X obj 492 23 inlet;
#X text 539 14 time for signal follower;
#X floatatom 300 322 5 0 0 0 - - -;
#X obj 382 119 loadbang;
#X obj 325 374 print;
#X msg 373 168 0.02;
#X floatatom 366 205 5 0 0 0 - - -;
#X obj 300 142 env~ 128;
#X obj 300 229 pack f 10;
#X connect 0 0 6 0;
#X connect 1 0 6 1;
#X connect 1 0 7 0;
#X connect 6 0 22 0;
#X connect 7 0 10 0;
#X connect 8 0 6 2;
#X connect 10 0 11 0;
#X connect 10 0 4 0;
#X connect 12 0 23 0;
#X connect 13 0 11 0;
#X connect 14 0 10 1;
#X connect 14 0 17 0;
#X connect 15 0 21 0;
#X connect 18 0 20 0;
#X connect 20 0 12 1;
#X connect 21 0 23 1;
#X connect 22 0 12 0;
#X connect 23 0 14 0;
#X restore 381 400 pd resynthElement0.2;
#N canvas 246 174 975 684 resynthElement0.2 0;
#X obj 28 7 inlet~;
#X obj 241 15 inlet;
#X text 88 9 signal;
#X text 288 14 frequency;
#X obj 41 458 outlet~;
#X text 125 458 output;
#X obj 244 72 bp~ 100 10;
#X obj 184 147 osc~;
#X obj 392 15 inlet;
#X text 437 14 Q;
#X obj 199 286 *~;
#X obj 363 458 print~;
#X obj 302 179 *;
#X msg 474 191 bang;
#X obj 298 255 line;
#X obj 492 23 inlet;
#X text 539 14 time for signal follower;
#X floatatom 300 322 5 0 0 0 - - -;
#X obj 382 119 loadbang;
#X obj 325 374 print;
#X msg 373 168 0.02;
#X floatatom 366 205 5 0 0 0 - - -;
#X obj 300 142 env~ 128;
#X obj 300 229 pack f 10;
#X connect 0 0 6 0;
#X connect 1 0 6 1;
#X connect 1 0 7 0;
#X connect 6 0 22 0;
#X connect 7 0 10 0;
#X connect 8 0 6 2;
#X connect 10 0 11 0;
#X connect 10 0 4 0;
#X connect 12 0 23 0;
#X connect 13 0 11 0;
#X connect 14 0 10 1;
#X connect 14 0 17 0;
#X connect 15 0 21 0;
#X connect 18 0 20 0;
#X connect 20 0 12 1;
#X connect 21 0 23 1;
#X connect 22 0 12 0;
#X connect 23 0 14 0;
#X restore 78 411 pd resynthElement0.2;
#N canvas 246 174 971 680 resynthElement0.2 0;
#X obj 28 7 inlet~;
#X obj 241 15 inlet;
#X text 88 9 signal;
#X text 288 14 frequency;
#X obj 41 458 outlet~;
#X text 125 458 output;
#X obj 244 72 bp~ 100 10;
#X obj 184 147 osc~;
#X obj 392 15 inlet;
#X text 437 14 Q;
#X obj 199 286 *~;
#X obj 363 458 print~;
#X obj 302 179 *;
#X msg 474 191 bang;
#X obj 298 255 line;
#X obj 492 23 inlet;
#X text 539 14 time for signal follower;
#X floatatom 300 322 5 0 0 0 - - -;
#X obj 382 119 loadbang;
#X obj 325 374 print;
#X msg 373 168 0.02;
#X floatatom 366 205 5 0 0 0 - - -;
#X obj 300 142 env~ 128;
#X obj 300 229 pack f 10;
#X connect 0 0 6 0;
#X connect 1 0 6 1;
#X connect 1 0 7 0;
#X connect 6 0 22 0;
#X connect 7 0 10 0;
#X connect 8 0 6 2;
#X connect 10 0 11 0;
#X connect 10 0 4 0;
#X connect 12 0 23 0;
#X connect 13 0 11 0;
#X connect 14 0 10 1;
#X connect 14 0 17 0;
#X connect 15 0 21 0;
#X connect 18 0 20 0;
#X connect 20 0 12 1;
#X connect 21 0 23 1;
#X connect 22 0 12 0;
#X connect 23 0 14 0;
#X restore 532 401 pd resynthElement0.2;
#N canvas 246 174 971 680 resynthElement0.2 0;
#X obj 28 7 inlet~;
#X obj 241 15 inlet;
#X text 88 9 signal;
#X text 288 14 frequency;
#X obj 41 458 outlet~;
#X text 125 458 output;
#X obj 244 72 bp~ 100 10;
#X obj 184 147 osc~;
#X obj 392 15 inlet;
#X text 437 14 Q;
#X obj 199 286 *~;
#X obj 363 458 print~;
#X obj 302 179 *;
#X msg 474 191 bang;
#X obj 298 255 line;
#X obj 492 23 inlet;
#X text 539 14 time for signal follower;
#X floatatom 300 322 5 0 0 0 - - -;
#X obj 382 119 loadbang;
#X obj 325 374 print;
#X msg 373 168 0.02;
#X floatatom 366 205 5 0 0 0 - - -;
#X obj 300 142 env~ 128;
#X obj 300 229 pack f 10;
#X connect 0 0 6 0;
#X connect 1 0 6 1;
#X connect 1 0 7 0;
#X connect 6 0 22 0;
#X connect 7 0 10 0;
#X connect 8 0 6 2;
#X connect 10 0 11 0;
#X connect 10 0 4 0;
#X connect 12 0 23 0;
#X connect 13 0 11 0;
#X connect 14 0 10 1;
#X connect 14 0 17 0;
#X connect 15 0 21 0;
#X connect 18 0 20 0;
#X connect 20 0 12 1;
#X connect 21 0 23 1;
#X connect 22 0 12 0;
#X connect 23 0 14 0;
#X restore 681 402 pd resynthElement0.2;
#N canvas 246 174 971 680 resynthElement0.2 0;
#X obj 28 7 inlet~;
#X obj 241 15 inlet;
#X text 88 9 signal;
#X text 288 14 frequency;
#X obj 41 458 outlet~;
#X text 125 458 output;
#X obj 244 72 bp~ 100 10;
#X obj 184 147 osc~;
#X obj 392 15 inlet;
#X text 437 14 Q;
#X obj 199 286 *~;
#X obj 363 458 print~;
#X obj 302 179 *;
#X msg 474 191 bang;
#X obj 298 255 line;
#X obj 492 23 inlet;
#X text 539 14 time for signal follower;
#X floatatom 300 322 5 0 0 0 - - -;
#X obj 382 119 loadbang;
#X obj 325 374 print;
#X msg 373 168 0.02;
#X floatatom 366 205 5 0 0 0 - - -;
#X obj 300 142 env~ 128;
#X obj 300 229 pack f 10;
#X connect 0 0 6 0;
#X connect 1 0 6 1;
#X connect 1 0 7 0;
#X connect 6 0 22 0;
#X connect 7 0 10 0;
#X connect 8 0 6 2;
#X connect 10 0 11 0;
#X connect 10 0 4 0;
#X connect 12 0 23 0;
#X connect 13 0 11 0;
#X connect 14 0 10 1;
#X connect 14 0 17 0;
#X connect 15 0 21 0;
#X connect 18 0 20 0;
#X connect 20 0 12 1;
#X connect 21 0 23 1;
#X connect 22 0 12 0;
#X connect 23 0 14 0;
#X restore 832 403 pd resynthElement0.2;
#X obj 319 156 * 4;
#X obj 347 156 * 8;
#X obj 380 156 * 16;
#X floatatom 118 89 5 0 0 0 - - -;
#X connect 0 0 14 0;
#X connect 0 0 12 0;
#X connect 0 0 13 0;
#X connect 0 0 15 0;
#X connect 0 0 16 0;
#X connect 0 0 17 0;
#X connect 1 0 9 0;
#X connect 1 0 10 0;
#X connect 1 0 11 0;
#X connect 1 0 18 0;
#X connect 1 0 19 0;
#X connect 1 0 20 0;
#X connect 2 0 14 2;
#X connect 2 0 12 2;
#X connect 2 0 13 2;
#X connect 2 0 15 2;
#X connect 2 0 16 2;
#X connect 2 0 17 2;
#X connect 5 0 14 3;
#X connect 5 0 17 3;
#X connect 5 0 16 3;
#X connect 5 0 15 3;
#X connect 5 0 13 3;
#X connect 5 0 12 3;
#X connect 9 0 14 1;
#X connect 10 0 12 1;
#X connect 11 0 13 1;
#X connect 12 0 8 0;
#X connect 13 0 8 0;
#X connect 14 0 8 0;
#X connect 15 0 8 0;
#X connect 16 0 8 0;
#X connect 17 0 8 0;
#X connect 18 0 15 1;
#X connect 19 0 16 1;
#X connect 20 0 17 1;
#X connect 21 0 9 1;
#X restore 332 302 pd sineResynthBeta;
#N canvas 660 161 1020 781 sineResynthBeta 0;
#X obj 18 287 inlet~;
#X obj 220 30 inlet;
#X obj 340 32 inlet;
#X text 388 32 Q;
#X text 264 32 base freq;
#X obj 638 34 inlet;
#X text 683 31 time for signal follower;
#X text 71 284 signal;
#X obj 62 569 outlet~;
#X obj 215 156 * 1;
#X obj 247 157 * 1.5;
#X obj 289 156 * 2;
#N canvas 246 174 971 680 resynthElement0.2 0;
#X obj 28 7 inlet~;
#X obj 241 15 inlet;
#X text 88 9 signal;
#X text 288 14 frequency;
#X obj 41 458 outlet~;
#X text 125 458 output;
#X obj 244 72 bp~ 100 10;
#X obj 184 147 osc~;
#X obj 392 15 inlet;
#X text 437 14 Q;
#X obj 199 286 *~;
#X obj 363 458 print~;
#X obj 302 179 *;
#X msg 474 191 bang;
#X obj 298 255 line;
#X obj 492 23 inlet;
#X text 539 14 time for signal follower;
#X floatatom 300 322 5 0 0 0 - - -;
#X obj 382 119 loadbang;
#X obj 325 374 print;
#X msg 373 168 0.02;
#X floatatom 366 205 5 0 0 0 - - -;
#X obj 300 142 env~ 128;
#X obj 300 229 pack f 10;
#X connect 0 0 6 0;
#X connect 1 0 6 1;
#X connect 1 0 7 0;
#X connect 6 0 22 0;
#X connect 7 0 10 0;
#X connect 8 0 6 2;
#X connect 10 0 11 0;
#X connect 10 0 4 0;
#X connect 12 0 23 0;
#X connect 13 0 11 0;
#X connect 14 0 10 1;
#X connect 14 0 17 0;
#X connect 15 0 21 0;
#X connect 18 0 20 0;
#X connect 20 0 12 1;
#X connect 21 0 23 1;
#X connect 22 0 12 0;
#X connect 23 0 14 0;
#X restore 227 401 pd resynthElement0.2;
#N canvas 246 174 971 680 resynthElement0.2 0;
#X obj 28 7 inlet~;
#X obj 241 15 inlet;
#X text 88 9 signal;
#X text 288 14 frequency;
#X obj 41 458 outlet~;
#X text 125 458 output;
#X obj 244 72 bp~ 100 10;
#X obj 184 147 osc~;
#X obj 392 15 inlet;
#X text 437 14 Q;
#X obj 199 286 *~;
#X obj 363 458 print~;
#X obj 302 179 *;
#X msg 474 191 bang;
#X obj 298 255 line;
#X obj 492 23 inlet;
#X text 539 14 time for signal follower;
#X floatatom 300 322 5 0 0 0 - - -;
#X obj 382 119 loadbang;
#X obj 325 374 print;
#X msg 373 168 0.02;
#X floatatom 366 205 5 0 0 0 - - -;
#X obj 300 142 env~ 128;
#X obj 300 229 pack f 10;
#X connect 0 0 6 0;
#X connect 1 0 6 1;
#X connect 1 0 7 0;
#X connect 6 0 22 0;
#X connect 7 0 10 0;
#X connect 8 0 6 2;
#X connect 10 0 11 0;
#X connect 10 0 4 0;
#X connect 12 0 23 0;
#X connect 13 0 11 0;
#X connect 14 0 10 1;
#X connect 14 0 17 0;
#X connect 15 0 21 0;
#X connect 18 0 20 0;
#X connect 20 0 12 1;
#X connect 21 0 23 1;
#X connect 22 0 12 0;
#X connect 23 0 14 0;
#X restore 381 400 pd resynthElement0.2;
#N canvas 246 174 975 684 resynthElement0.2 0;
#X obj 28 7 inlet~;
#X obj 241 15 inlet;
#X text 88 9 signal;
#X text 288 14 frequency;
#X obj 41 458 outlet~;
#X text 125 458 output;
#X obj 244 72 bp~ 100 10;
#X obj 184 147 osc~;
#X obj 392 15 inlet;
#X text 437 14 Q;
#X obj 199 286 *~;
#X obj 363 458 print~;
#X obj 302 179 *;
#X msg 474 191 bang;
#X obj 298 255 line;
#X obj 492 23 inlet;
#X text 539 14 time for signal follower;
#X floatatom 300 322 5 0 0 0 - - -;
#X obj 382 119 loadbang;
#X obj 325 374 print;
#X msg 373 168 0.02;
#X floatatom 366 205 5 0 0 0 - - -;
#X obj 300 142 env~ 128;
#X obj 300 229 pack f 10;
#X connect 0 0 6 0;
#X connect 1 0 6 1;
#X connect 1 0 7 0;
#X connect 6 0 22 0;
#X connect 7 0 10 0;
#X connect 8 0 6 2;
#X connect 10 0 11 0;
#X connect 10 0 4 0;
#X connect 12 0 23 0;
#X connect 13 0 11 0;
#X connect 14 0 10 1;
#X connect 14 0 17 0;
#X connect 15 0 21 0;
#X connect 18 0 20 0;
#X connect 20 0 12 1;
#X connect 21 0 23 1;
#X connect 22 0 12 0;
#X connect 23 0 14 0;
#X restore 78 411 pd resynthElement0.2;
#N canvas 246 174 971 680 resynthElement0.2 0;
#X obj 28 7 inlet~;
#X obj 241 15 inlet;
#X text 88 9 signal;
#X text 288 14 frequency;
#X obj 41 458 outlet~;
#X text 125 458 output;
#X obj 244 72 bp~ 100 10;
#X obj 184 147 osc~;
#X obj 392 15 inlet;
#X text 437 14 Q;
#X obj 199 286 *~;
#X obj 363 458 print~;
#X obj 302 179 *;
#X msg 474 191 bang;
#X obj 298 255 line;
#X obj 492 23 inlet;
#X text 539 14 time for signal follower;
#X floatatom 300 322 5 0 0 0 - - -;
#X obj 382 119 loadbang;
#X obj 325 374 print;
#X msg 373 168 0.02;
#X floatatom 366 205 5 0 0 0 - - -;
#X obj 300 142 env~ 128;
#X obj 300 229 pack f 10;
#X connect 0 0 6 0;
#X connect 1 0 6 1;
#X connect 1 0 7 0;
#X connect 6 0 22 0;
#X connect 7 0 10 0;
#X connect 8 0 6 2;
#X connect 10 0 11 0;
#X connect 10 0 4 0;
#X connect 12 0 23 0;
#X connect 13 0 11 0;
#X connect 14 0 10 1;
#X connect 14 0 17 0;
#X connect 15 0 21 0;
#X connect 18 0 20 0;
#X connect 20 0 12 1;
#X connect 21 0 23 1;
#X connect 22 0 12 0;
#X connect 23 0 14 0;
#X restore 532 401 pd resynthElement0.2;
#N canvas 246 174 971 680 resynthElement0.2 0;
#X obj 28 7 inlet~;
#X obj 241 15 inlet;
#X text 88 9 signal;
#X text 288 14 frequency;
#X obj 41 458 outlet~;
#X text 125 458 output;
#X obj 244 72 bp~ 100 10;
#X obj 184 147 osc~;
#X obj 392 15 inlet;
#X text 437 14 Q;
#X obj 199 286 *~;
#X obj 363 458 print~;
#X obj 302 179 *;
#X msg 474 191 bang;
#X obj 298 255 line;
#X obj 492 23 inlet;
#X text 539 14 time for signal follower;
#X floatatom 300 322 5 0 0 0 - - -;
#X obj 382 119 loadbang;
#X obj 325 374 print;
#X msg 373 168 0.02;
#X floatatom 366 205 5 0 0 0 - - -;
#X obj 300 142 env~ 128;
#X obj 300 229 pack f 10;
#X connect 0 0 6 0;
#X connect 1 0 6 1;
#X connect 1 0 7 0;
#X connect 6 0 22 0;
#X connect 7 0 10 0;
#X connect 8 0 6 2;
#X connect 10 0 11 0;
#X connect 10 0 4 0;
#X connect 12 0 23 0;
#X connect 13 0 11 0;
#X connect 14 0 10 1;
#X connect 14 0 17 0;
#X connect 15 0 21 0;
#X connect 18 0 20 0;
#X connect 20 0 12 1;
#X connect 21 0 23 1;
#X connect 22 0 12 0;
#X connect 23 0 14 0;
#X restore 681 402 pd resynthElement0.2;
#N canvas 246 174 971 680 resynthElement0.2 0;
#X obj 28 7 inlet~;
#X obj 241 15 inlet;
#X text 88 9 signal;
#X text 288 14 frequency;
#X obj 41 458 outlet~;
#X text 125 458 output;
#X obj 244 72 bp~ 100 10;
#X obj 184 147 osc~;
#X obj 392 15 inlet;
#X text 437 14 Q;
#X obj 199 286 *~;
#X obj 363 458 print~;
#X obj 302 179 *;
#X msg 474 191 bang;
#X obj 298 255 line;
#X obj 492 23 inlet;
#X text 539 14 time for signal follower;
#X floatatom 300 322 5 0 0 0 - - -;
#X obj 382 119 loadbang;
#X obj 325 374 print;
#X msg 373 168 0.02;
#X floatatom 366 205 5 0 0 0 - - -;
#X obj 300 142 env~ 128;
#X obj 300 229 pack f 10;
#X connect 0 0 6 0;
#X connect 1 0 6 1;
#X connect 1 0 7 0;
#X connect 6 0 22 0;
#X connect 7 0 10 0;
#X connect 8 0 6 2;
#X connect 10 0 11 0;
#X connect 10 0 4 0;
#X connect 12 0 23 0;
#X connect 13 0 11 0;
#X connect 14 0 10 1;
#X connect 14 0 17 0;
#X connect 15 0 21 0;
#X connect 18 0 20 0;
#X connect 20 0 12 1;
#X connect 21 0 23 1;
#X connect 22 0 12 0;
#X connect 23 0 14 0;
#X restore 832 403 pd resynthElement0.2;
#X obj 319 156 * 4;
#X obj 347 156 * 8;
#X obj 380 156 * 16;
#X floatatom 118 89 5 0 0 0 - - -;
#X connect 0 0 14 0;
#X connect 0 0 12 0;
#X connect 0 0 13 0;
#X connect 0 0 15 0;
#X connect 0 0 16 0;
#X connect 0 0 17 0;
#X connect 1 0 9 0;
#X connect 1 0 10 0;
#X connect 1 0 11 0;
#X connect 1 0 18 0;
#X connect 1 0 19 0;
#X connect 1 0 20 0;
#X connect 2 0 14 2;
#X connect 2 0 12 2;
#X connect 2 0 13 2;
#X connect 2 0 15 2;
#X connect 2 0 16 2;
#X connect 2 0 17 2;
#X connect 5 0 14 3;
#X connect 5 0 17 3;
#X connect 5 0 16 3;
#X connect 5 0 15 3;
#X connect 5 0 13 3;
#X connect 5 0 12 3;
#X connect 9 0 14 1;
#X connect 10 0 12 1;
#X connect 11 0 13 1;
#X connect 12 0 8 0;
#X connect 13 0 8 0;
#X connect 14 0 8 0;
#X connect 15 0 8 0;
#X connect 16 0 8 0;
#X connect 17 0 8 0;
#X connect 18 0 15 1;
#X connect 19 0 16 1;
#X connect 20 0 17 1;
#X connect 21 0 9 1;
#X restore 459 303 pd sineResynthBeta;
#X floatatom 485 40 5 0 0 0 - - -;
#X connect 0 0 1 0;
#X connect 1 0 3 1;
#X connect 2 0 3 0;
#X connect 3 0 20 0;
#X connect 6 0 17 0;
#X connect 7 0 6 0;
#X connect 8 0 9 0;
#X connect 9 0 17 0;
#X connect 10 0 11 1;
#X connect 11 0 26 0;
#X connect 11 0 27 0;
#X connect 12 0 15 0;
#X connect 13 0 15 1;
#X connect 14 0 16 0;
#X connect 15 0 17 0;
#X connect 16 0 13 0;
#X connect 17 0 11 0;
#X connect 20 0 19 0;
#X connect 22 0 26 1;
#X connect 23 0 26 2;
#X connect 23 0 27 2;
#X connect 24 0 26 3;
#X connect 24 0 27 3;
#X connect 26 0 5 0;
#X connect 26 0 5 1;
#X connect 27 0 5 0;
#X connect 27 0 5 1;
#X connect 28 0 27 1;
